# AST/ASF file generated using VICON BodyLanguage
# -----------------------------------------------
:version 1.10
:name VICON
:units
  mass 1.0
  length 0.45
  angle deg
:documentation
   .ast/.asf automatically generated from VICON data using
   VICON BodyBuilder and BodyLanguage model FoxedUp or BRILLIANT.MOD
:root
   order TX TY TZ RX RY RZ
   axis XYZ
   position 0 0 0  
   orientation 0 0 0 
:bonedata
  begin
     id 1 
     name lhipjoint
     direction 0.573633 -0.743009 0.344793 
     length 2.46257 
     axis 0 0 0  XYZ
  end
  begin
     id 2 
     name lfemur
     direction 0.34202 -0.939693 0  
     length 7.3842  
     axis 0 0 20  XYZ
    dof rx ry rz
    limits (-160.0 20.0)
           (-70.0 70.0)
           (-60.0 70.0)
  end
  begin
     id 3 
     name ltibia
     direction 0.34202 -0.939693 0   
     length 7.50407   
     axis 0 0 20   XYZ
    dof rx
    limits (-10.0 170.0)
  end
  begin
     id 4 
     name lfoot
     direction 0.110749 -0.304281 0.946123   
     length 1.95925   
     axis -90 7.62852e-016 20   XYZ
    dof rx rz
    limits (-45.0 90.0)
           (-70.0 20.0)
  end
  begin
     id 5 
     name ltoes
     direction 1.53554e-011 -4.21843e-011 1   
     length 0.978318   
     axis -90 7.62852e-016 20   XYZ
    dof rx
    limits (-90.0 20.0)
  end
  begin
     id 6 
     name rhipjoint
     direction -0.488109 -0.791693 0.367385   
     length 2.31113  
     axis 0 0 0  XYZ 
  end
  begin
     id 7 
     name rfemur
     direction -0.34202 -0.939693 0   
     length 7.40965   
     axis 0 0 -20   XYZ
    dof rx ry rz
    limits (-160.0 20.0)
           (-70.0 70.0)
           (-70.0 60.0)
  end
  begin
     id 8 
     name rtibia
     direction -0.34202 -0.939693 0   
     length 7.55548   
     axis 0 0 -20   XYZ
    dof rx
    limits (-10.0 170.0)
 end
 begin
     id 9 
     name rfoot
     direction -0.127594 -0.350561 0.927808   
     length 2.07199  
     axis -90 -7.62852e-016 -20   XYZ
    dof rx rz
    limits (-45.0 90.0)
           (-20.0 70.0)
  end
  begin
     id 10 
     name rtoes
     direction -1.53542e-011 -4.21909e-011 1   
     length 1.02667   
     axis -90 -7.62852e-016 -20   XYZ
    dof rx
    limits (-90.0 20.0)
  end
  begin
     id 11 
     name lowerback
     direction -0.0103342 0.997298 -0.0727278   
     length 2.02836   
     axis 0 0 0   XYZ
    dof rx ry rz
    limits (-20.0 45.0)
           (-30.0 30.0)
           (-30.0 30.0)
  end
  begin
     id 12 
     name upperback
     direction 0.0171146 0.999786 -0.011606   
     length 2.03179   
     axis 0 0 0   XYZ
    dof rx ry rz
    limits (-20.0 45.0)
           (-30.0 30.0)
           (-30.0 30.0)
  end
  begin
     id 13 
     name thorax
     direction 0.0216927 0.999513 0.0224343   
     length 2.03882   
     axis 0 0 0   XYZ
    dof rx ry rz
    limits (-20.0 45.0)
           (-30.0 30.0)
           (-30.0 30.0)
  end
  begin
     id 14 
     name lowerneck
     direction 0.000989287 0.993907 0.110221   
     length 1.75428   
     axis 0 0 0   XYZ
    dof rx ry rz
    limits (-20.0 45.0)
           (-30.0 30.0)
           (-30.0 30.0)
  end
  begin
     id 15 
     name upperneck
     direction -0.0172474 0.994813 -0.100253   
     length 1.77058   
     axis 0 0 0   XYZ
    dof rx ry rz
    limits (-20.0 45.0)
           (-30.0 30.0)
           (-30.0 30.0)
  end
  begin
     id 16
     name head
     direction -0.00486455 0.99894 -0.0457663  
     length 1.77427  
     axis 0 0 0   XYZ
    dof rx ry rz
    limits (-20.0 45.0)
           (-30.0 30.0)
           (-30.0 30.0)
  end
  begin
     id 17 
     name lclavicle
     direction 0.927314 0.333734 -0.169441  
     length 3.97584  
     axis 0 0 0   XYZ
    dof ry rz
    limits (-20.0 10.0)
           (0.0 20.0)
  end
  begin
     id 18 
     name lhumerus
     direction 1 -4.48965e-011 -3.25313e-028   
     length 4.76468   
     axis 180 -30 -90   XYZ
    dof rx ry rz
    limits (-60.0 90.0)
           (-90.0 90.0)
           (-90.0 90.0)
  end
  begin
     id 19
     name lradius
     direction 1 -4.48969e-011 -2.8465e-028   
     length 3.52712   
     axis -180 -30 -90   XYZ
    dof rx
    limits (-10.0 170.0)
  end
  begin
     id 20
     name lwrist
     direction 1 -4.4896e-011 -7.78665e-028   
     length 1.76356   
     axis 1.91374e-015 90 90   XYZ
    dof ry
    limits (-180.0 0.0)
 end
  begin
     id 21 
     name lhand
     direction 1 -4.48959e-011 -1.55733e-027   
     length 0.859564   
     axis 9.9371e-016 90 90   XYZ
    dof rx rz
    limits (-90.0 90.0)
           (-45.0 45.0)
  end
  begin
     id 22 
     name lfingers
     direction 1 -4.48965e-011 -3.11466e-027   
     length 0.693002   
     axis 1.98742e-015 90 90   XYZ
    dof rx
    limits (0.0 90.0)
  end
  begin
     id 23
     name lthumb
     direction 0.707107 -6.34948e-011 0.707107   
     length 0.995017   
     axis -90 45 2.85299e-015   XYZ
    dof rx rz
    limits (-45.0 45.0)
           (-45.0 45.0)
  end
  begin
     id 24 
     name rclavicle
     direction -0.899388 0.348209 -0.264294   
     length 3.68366  
     axis 0 0 0   XYZ 
    dof ry rz
    limits (-10.0 20.0)
           (-20.0 0.0)
  end
  begin
     id 25 
     name rhumerus
     direction -1 -4.48965e-011 -3.01536e-027  
     length 4.90577   
     axis 180 30 90   XYZ
    dof rx ry rz
    limits (-90.0 60.0)
           (-90.0 90.0)
           (-90.0 90.0)
  end
  begin
     id 26 
     name rradius
     direction -1 -4.48966e-011 3.93291e-027   
     length 3.42692   
     axis -180 30 90   XYZ
    dof rx
    limits (-10.0 170.0)
  end
  begin
     id 27 
     name rwrist
     direction -1 -4.48969e-011 -7.78665e-028   
     length 1.71346   
     axis 1.91374e-015 -90 -90   XYZ
    dof ry
    limits (-180.0 0.0)
  end
  begin
     id 28
     name rhand
     direction -1 -4.48967e-011 -1.55733e-027   
     length 0.740957   
     axis 9.9371e-016 -90 -90   XYZ
    dof rx rz
    limits (-90.0 90.0)
           (-45.0 45.0)
  end
  begin
     id 29
     name rfingers
     direction -1 -4.48949e-011 -3.11466e-027   
     length 0.597378   
     axis 1.98742e-015 -90 -90   XYZ
    dof rx
    limits (0.0 90.0)
  end
  begin
     id 30
     name rthumb
     direction -0.707107 -6.34931e-011 0.707107   
     length 0.857719   
     axis -90 -45 -2.85299e-015   XYZ
    dof rx rz
    limits (-45.0 45.0)
           (-45.0 45.0)
  end
:hierarchy
  begin
    root lhipjoint rhipjoint lowerback
    lhipjoint lfemur
    lfemur ltibia
    ltibia lfoot
    lfoot ltoes
    rhipjoint rfemur
    rfemur rtibia
    rtibia rfoot
    rfoot rtoes
    lowerback upperback
    upperback thorax
    thorax lowerneck lclavicle rclavicle
    lowerneck upperneck
    upperneck head
    lclavicle lhumerus
    lhumerus lradius
    lradius lwrist
    lwrist lhand lthumb
    lhand lfingers
    rclavicle rhumerus
    rhumerus rradius
    rradius rwrist
    rwrist rhand rthumb
    rhand rfingers
  end

#!OML:ASF E:\I on waltz\AllaLogoMonkeySwing\Project 1\Capture day 1\Session 1\Subject1.ASF
:FULLY-SPECIFIED
:DEGREES
48
root -16.2755 18.1205 -26.6518 4.74714 37.7206 -0.623849
lowerback 7.08754 -0.304153 -4.42226
upperback 0.661681 -0.633535 3.07113
thorax -3.20891 -0.232498 5.76042
lowerneck -7.16768 -0.809928 -1.62423
upperneck 13.1675 -0.692167 -1.14253
head 5.14089 -0.474675 -0.131693
rclavicle -2.03754e-014 -7.15625e-015
rhumerus -29.4405 -23.0562 -74.1393
rradius 19.6658
rwrist 8.03703
rhand -10.4027 -34.0834
rfingers 7.12502
rthumb 15.5959 -63.4747
lclavicle -2.03754e-014 -7.15625e-015
lhumerus -45.6848 38.8083 68.2247
lradius 27.0267
lwrist -41.0697
lhand 7.07264 -20.0075
lfingers 7.12502
lthumb 32.3448 7.12871
rfemur -7.0572 -3.36413 20.7856
rtibia 18.8302
rfoot -21.2553 -4.34069
rtoes 16.497
lfemur -2.53378 -1.18514 -18.6642
ltibia 11.6767
lfoot -14.7743 3.92388
ltoes -21.4581
49
root -16.2739 18.1181 -26.6157 4.864 37.4678 -0.426033
lowerback 7.13754 -0.345759 -4.53171
upperback 0.64846 -0.702429 3.00212
thorax -3.24113 -0.264748 5.75785
lowerneck -6.93171 -1.09539 -1.83146
upperneck 12.9428 -1.07938 -1.01679
head 5.0343 -0.66382 -0.0817996
rclavicle -8.48811e-014 2.46493e-014
rhumerus -29.6989 -22.7554 -74.2012
rradius 19.5925
rwrist 8.51831
rhand -10.8 -33.0668
rfingers 7.12502
rthumb 15.2132 -62.4875
lclavicle -8.48811e-014 2.46493e-014
lhumerus -44.6713 38.2085 69.1678
lradius 27.6107
lwrist -39.7266
lhand 6.80234 -19.8931
lfingers 7.12502
lthumb 32.0875 7.29524
rfemur -6.99207 -3.20176 20.6739
rtibia 18.9083
rfoot -21.5587 -4.25758
rtoes 16.4029
lfemur -2.4165 -1.10012 -18.7891
ltibia 11.7093
lfoot -14.8924 3.99853
ltoes -21.8343
50
root -16.2704 18.1134 -26.5806 4.80448 37.2526 -0.464607
lowerback 7.27048 -0.360435 -4.37929
upperback 0.634812 -0.716946 2.93327
thorax -3.33059 -0.271516 5.60189
lowerneck -6.65749 -1.39453 -1.91785
upperneck 12.712 -1.49844 -0.906916
head 4.9198 -0.863965 -0.0572721
rclavicle -3.3197e-014 1.74931e-014
rhumerus -29.9913 -23.1614 -74.0724
rradius 19.3994
rwrist 9.49187
rhand -10.2078 -33.2121
rfingers 7.12502
rthumb 15.7836 -62.5886
lclavicle -3.3197e-014 1.74931e-014
lhumerus -43.4788 37.222 70.3738
lradius 28.1957
lwrist -37.426
lhand 6.19654 -19.7125
lfingers 7.12502
lthumb 31.5106 7.59044
rfemur -6.90378 -3.21608 20.7878
rtibia 19.0738
rfoot -21.8726 -4.10683
rtoes 15.5238
lfemur -2.20402 -0.960537 -18.6948
ltibia 11.647
lfoot -14.9773 4.05971
ltoes -22.496
51
root -16.2612 18.1041 -26.546 4.44157 37.1081 -1.01233
lowerback 7.43849 -0.433999 -3.73095
upperback 0.617815 -0.763431 2.99286
thorax -3.44389 -0.299507 5.30192
lowerneck -6.42324 -1.63023 -1.99045
upperneck 12.3955 -1.83453 -0.791599
head 4.78612 -1.02284 -0.0270061
rclavicle -5.02925e-014 -1.15295e-014
rhumerus -30.1939 -23.4711 -73.9609
rradius 19.1956
rwrist 10.2954
rhand -7.70513 -35.67
rfingers 7.12502
rthumb 18.1925 -64.8392
lclavicle -5.02925e-014 -1.15295e-014
lhumerus -42.4065 36.4052 71.4894
lradius 28.7929
lwrist -35.0864
lhand 5.28299 -19.8117
lfingers 7.12502
lthumb 30.6399 7.65775
rfemur -6.79761 -3.43939 21.3652
rtibia 19.221
rfoot -22.2111 -3.81285
rtoes 14.749
lfemur -1.982 -0.973467 -18.157
ltibia 11.6159
lfoot -15.0606 4.26173
ltoes -22.7291
52
root -16.2511 18.0959 -26.5048 4.29786 36.906 -1.29894
lowerback 7.51433 -0.587164 -3.40022
upperback 0.613033 -0.93756 3.08159
thorax -3.47435 -0.38928 5.22562
lowerneck -6.29147 -1.71742 -2.17852
upperneck 12.1367 -1.95621 -0.655653
head 4.68851 -1.08159 0.040738
rclavicle -2.73329e-014 2.70347e-014
rhumerus -30.1414 -23.3192 -74.0201
rradius 18.9427
rwrist 10.5588
rhand -7.62724 -35.4765
rfingers 7.12502
rthumb 18.2675 -64.6387
lclavicle -2.73329e-014 2.70347e-014
lhumerus -41.5364 35.9946 72.416
lradius 29.5812
lwrist -33.5279
lhand 4.62593 -19.7419
lfingers 7.12502
lthumb 30.0131 7.84296
rfemur -6.69436 -3.51464 21.6865
rtibia 19.2406
rfoot -22.694 -3.46107
rtoes 14.335
lfemur -1.88347 -1.05439 -17.8719
ltibia 11.7381
lfoot -15.2052 4.61355
ltoes -23.1182
53
root -16.2442 18.0913 -26.4558 4.41539 36.5848 -1.20538
lowerback 7.55703 -0.700876 -3.51232
upperback 0.599576 -1.09886 3.10443
thorax -3.49115 -0.467192 5.33136
lowerneck -6.51769 -1.81094 -2.3261
upperneck 12.5287 -2.04009 -0.764444
head 4.84883 -1.13877 0.0219963
rclavicle -5.9536e-014 -1.59028e-015
rhumerus -30.1139 -23.5677 -73.8988
rradius 18.5982
rwrist 11.0551
rhand -7.19306 -35.1911
rfingers 7.12502
rthumb 18.6851 -64.3137
lclavicle -5.9536e-014 -1.59028e-015
lhumerus -40.6536 35.1988 73.5372
lradius 30.5469
lwrist -31.6355
lhand 3.92577 -19.6816
lfingers 7.12502
lthumb 29.3448 8.02232
rfemur -6.58674 -3.35681 21.6793
rtibia 19.2093
rfoot -23.3302 -3.28181
rtoes 13.3019
lfemur -1.8508 -0.96809 -17.8932
ltibia 11.9621
lfoot -15.4165 4.90305
ltoes -23.2682
54
root -16.2383 18.0865 -26.4025 4.62186 36.2223 -1.05928
lowerback 7.57212 -0.729765 -3.69738
upperback 0.551413 -1.15409 3.10012
thorax -3.53977 -0.489866 5.43964
lowerneck -6.44945 -1.95166 -2.45695
upperneck 12.4765 -2.2075 -0.844594
head 4.82353 -1.23134 0.00930276
rclavicle -9.74045e-015 3.18055e-015
rhumerus -30.1561 -23.7346 -73.8804
rradius 18.3653
rwrist 10.7229
rhand -7.66508 -35.4607
rfingers 7.12502
rthumb 18.2311 -64.6263
lclavicle -9.74045e-015 3.18055e-015
lhumerus -39.7869 33.7437 74.8596
lradius 31.7414
lwrist -29.4997
lhand 3.38359 -19.6519
lfingers 7.12502
lthumb 28.827 8.14145
rfemur -6.55228 -3.15753 21.6486
rtibia 19.2236
rfoot -23.9257 -3.30019
rtoes 12.0075
lfemur -1.90559 -0.737418 -17.9285
ltibia 12.2535
lfoot -15.6068 5.12658
ltoes -23.3021
55
root -16.2299 18.0808 -26.3476 4.78865 35.9164 -0.985807
lowerback 7.5788 -0.769902 -3.79238
upperback 0.52409 -1.21572 3.11055
thorax -3.56238 -0.517951 5.512
lowerneck -6.37832 -2.05426 -2.54854
upperneck 12.359 -2.33707 -0.867059
head 4.77742 -1.29961 0.0108672
rclavicle -5.22804e-014 2.62396e-014
rhumerus -30.0961 -24.0908 -73.7984
rradius 18.0104
rwrist 10.7551
rhand -8.13112 -35.4627
rfingers 7.12502
rthumb 17.7827 -64.6697
lclavicle -5.22804e-014 2.62396e-014
lhumerus -39.0613 32.3686 75.9838
lradius 33.1033
lwrist -28.1914
lhand 3.06346 -19.4737
lfingers 7.12502
lthumb 28.5212 8.3714
rfemur -6.51307 -3.07561 21.675
rtibia 19.2442
rfoot -24.315 -3.18895
rtoes 11.6628
lfemur -2.05356 -0.561153 -17.8983
ltibia 12.7582
lfoot -15.9628 5.31906
ltoes -23.2547
56
root -16.2192 18.0738 -26.2911 4.78133 35.6646 -1.12898
lowerback 7.66201 -0.877789 -3.62932
upperback 0.536333 -1.34651 3.1313
thorax -3.58336 -0.585008 5.45596
lowerneck -6.49193 -2.11277 -2.57035
upperneck 12.4144 -2.40832 -0.88021
head 4.81445 -1.3373 0.00434952
rclavicle 7.65321e-015 7.95139e-016
rhumerus -29.9267 -24.5754 -73.7883
rradius 17.5957
rwrist 11.0404
rhand -8.72655 -35.1423
rfingers 7.12502
rthumb 17.2096 -64.4002
lclavicle 7.65321e-015 7.95139e-016
lhumerus -38.376 31.2509 76.8806
lradius 34.4479
lwrist -27.2132
lhand 2.58496 -19.3807
lfingers 7.12502
lthumb 28.0639 8.54022
rfemur -6.40368 -3.05992 21.9038
rtibia 19.2362
rfoot -24.5892 -2.92885
rtoes 11.7933
lfemur -2.29641 -0.464402 -17.6668
ltibia 13.5905
lfoot -16.544 5.47759
ltoes -22.823
57
root -16.2102 18.0641 -26.2318 4.62255 35.3773 -1.52799
lowerback 7.80799 -0.976436 -3.27247
upperback 0.548569 -1.44657 3.19806
thorax -3.64734 -0.638054 5.33692
lowerneck -6.67687 -2.07847 -2.48883
upperneck 12.484 -2.36018 -0.924039
head 4.86507 -1.31399 -0.0220735
rclavicle 2.22639e-014 -7.15625e-015
rhumerus -29.8701 -25.0825 -73.8077
rradius 17.4699
rwrist 11.6256
rhand -8.95561 -34.8881
rfingers 7.12502
rthumb 16.9892 -64.1651
lclavicle 2.22639e-014 -7.15625e-015
lhumerus -37.6547 29.9643 77.87
lradius 35.7397
lwrist -25.3351
lhand 2.0566 -19.2918
lfingers 7.12502
lthumb 27.5587 8.71075
rfemur -6.30389 -2.93552 22.4046
rtibia 19.247
rfoot -24.6363 -1.98842
rtoes 14.1036
lfemur -2.72492 -0.258277 -17.16
ltibia 14.7842
lfoot -17.2354 5.65306
ltoes -22.3858
58
root -16.1982 18.0493 -26.1741 4.50074 35.064 -1.87759
lowerback 7.97204 -0.999195 -2.94559
upperback 0.546698 -1.44665 3.27309
thorax -3.74729 -0.639716 5.23475
lowerneck -6.79533 -1.97902 -2.435
upperneck 12.5195 -2.23115 -0.90689
head 4.89444 -1.24806 -0.0190462
rclavicle -1.47101e-013 -1.59028e-014
rhumerus -29.7917 -24.9714 -74.0172
rradius 17.4522
rwrist 11.7236
rhand -8.92111 -34.9261
rfingers 7.12502
rthumb 17.0224 -64.2003
lclavicle -1.47101e-013 -1.59028e-014
lhumerus -37.0112 28.3655 78.9932
lradius 37.0871
lwrist -23.1222
lhand 1.57787 -19.183
lfingers 7.12502
lthumb 27.1008 8.89173
rfemur -6.2248 -2.83769 22.8313
rtibia 19.3159
rfoot -24.7253 -0.953464
rtoes 16.3605
lfemur -3.35567 0.0101405 -16.7282
ltibia 16.3247
lfoot -18.0199 5.9188
ltoes -22.1282
59
root -16.1815 18.0292 -26.1187 4.40375 34.7754 -2.16922
lowerback 8.16465 -1.00117 -2.59079
upperback 0.551629 -1.41609 3.32996
thorax -3.86058 -0.626764 5.09504
lowerneck -6.82803 -1.80309 -2.30767
upperneck 12.3925 -2.00675 -0.936288
head 4.85721 -1.1336 -0.0344687
rclavicle 4.19436e-014 -2.10712e-014
rhumerus -29.6736 -24.6744 -74.3503
rradius 17.6008
rwrist 11.4452
rhand -8.97081 -35.1647
rfingers 7.12502
rthumb 16.9745 -64.443
lclavicle 4.19436e-014 -2.10712e-014
lhumerus -36.4189 26.5942 80.1688
lradius 38.4217
lwrist -20.7874
lhand 0.596279 -19.0792
lfingers 7.12502
lthumb 26.1614 9.13825
rfemur -6.14949 -2.83802 23.1725
rtibia 19.4648
rfoot -25.2319 -0.699713
rtoes 15.1176
lfemur -4.15849 0.276355 -16.3861
ltibia 18.159
lfoot -18.7633 6.16749
ltoes -22.0016
